# xmcd
#
# Track frame offsets: 
#        150
#        9761
#        24718
#        33261
#        45731
#        55592
#        71139
#        80626
#        91319
#        105055
#
# Disc length: 1534 seconds
#
# Revision: 0
# Processed by: cddbd v1.5.2PL0 Copyright (c) Steve Scherf et al.
# Submitted via: ExactAudioCopy v1.3
#
DISCID=6c05fc0a
DTITLE=Paula Cravens - Yodel Lady Who
DYEAR=1900
DGENRE=Country
TTITLE0=Teach Me How to Yodel
TTITLE1=He Taught Me How to Yodel
TTITLE2=Only a Matter of Mercy
TTITLE3=Because I Can
TTITLE4=Cowboys Sweetheart
TTITLE5=Ladys Cattle Call Prayer
TTITLE6=Jesus Put a Yodel in my Soul
TTITLE7=A Yellow One for Me
TTITLE8=Bugle Ann
TTITLE9=Cowboy Yodel
EXTD=
EXTT0=
EXTT1=
EXTT2=
EXTT3=
EXTT4=
EXTT5=
EXTT6=
EXTT7=
EXTT8=
EXTT9=
PLAYORDER=
